G04 #@! TF.GenerationSoftware,KiCad,Pcbnew,(5.1.5)-3*
G04 #@! TF.CreationDate,2020-02-13T20:49:59+01:00*
G04 #@! TF.ProjectId,bms,626d732e-6b69-4636-9164-5f7063625858,01*
G04 #@! TF.SameCoordinates,Original*
G04 #@! TF.FileFunction,Soldermask,Bot*
G04 #@! TF.FilePolarity,Negative*
%FSLAX46Y46*%
G04 Gerber Fmt 4.6, Leading zero omitted, Abs format (unit mm)*
G04 Created by KiCad (PCBNEW (5.1.5)-3) date 2020-02-13 20:49:59*
%MOMM*%
%LPD*%
G04 APERTURE LIST*
%ADD10C,0.100000*%
G04 APERTURE END LIST*
D10*
G36*
X145276626Y-109687037D02*
G01*
X145446465Y-109738557D01*
X145446467Y-109738558D01*
X145602989Y-109822221D01*
X145740186Y-109934814D01*
X145823448Y-110036271D01*
X145852778Y-110072009D01*
X145936443Y-110228534D01*
X145987963Y-110398373D01*
X146001000Y-110530742D01*
X146001000Y-110869257D01*
X145987963Y-111001626D01*
X145936443Y-111171466D01*
X145852778Y-111327991D01*
X145823448Y-111363729D01*
X145740186Y-111465186D01*
X145652178Y-111537411D01*
X145602991Y-111577778D01*
X145446466Y-111661443D01*
X145276627Y-111712963D01*
X145100000Y-111730359D01*
X144923374Y-111712963D01*
X144753535Y-111661443D01*
X144597010Y-111577778D01*
X144459815Y-111465185D01*
X144347222Y-111327991D01*
X144263557Y-111171466D01*
X144212037Y-111001627D01*
X144199000Y-110869258D01*
X144199000Y-110530743D01*
X144201463Y-110505740D01*
X144212037Y-110398376D01*
X144212037Y-110398374D01*
X144263557Y-110228535D01*
X144347222Y-110072010D01*
X144367738Y-110047011D01*
X144459814Y-109934814D01*
X144561271Y-109851552D01*
X144597009Y-109822222D01*
X144753534Y-109738557D01*
X144923373Y-109687037D01*
X145100000Y-109669641D01*
X145276626Y-109687037D01*
G37*
G36*
X132776626Y-109687037D02*
G01*
X132946465Y-109738557D01*
X132946467Y-109738558D01*
X133102989Y-109822221D01*
X133240186Y-109934814D01*
X133323448Y-110036271D01*
X133352778Y-110072009D01*
X133436443Y-110228534D01*
X133487963Y-110398373D01*
X133501000Y-110530742D01*
X133501000Y-110869257D01*
X133487963Y-111001626D01*
X133436443Y-111171466D01*
X133352778Y-111327991D01*
X133323448Y-111363729D01*
X133240186Y-111465186D01*
X133152178Y-111537411D01*
X133102991Y-111577778D01*
X132946466Y-111661443D01*
X132776627Y-111712963D01*
X132600000Y-111730359D01*
X132423374Y-111712963D01*
X132253535Y-111661443D01*
X132097010Y-111577778D01*
X131959815Y-111465185D01*
X131847222Y-111327991D01*
X131763557Y-111171466D01*
X131712037Y-111001627D01*
X131699000Y-110869258D01*
X131699000Y-110530743D01*
X131701463Y-110505740D01*
X131712037Y-110398376D01*
X131712037Y-110398374D01*
X131763557Y-110228535D01*
X131847222Y-110072010D01*
X131867738Y-110047011D01*
X131959814Y-109934814D01*
X132061271Y-109851552D01*
X132097009Y-109822222D01*
X132253534Y-109738557D01*
X132423373Y-109687037D01*
X132600000Y-109669641D01*
X132776626Y-109687037D01*
G37*
G36*
X135276626Y-109687037D02*
G01*
X135446465Y-109738557D01*
X135446467Y-109738558D01*
X135602989Y-109822221D01*
X135740186Y-109934814D01*
X135823448Y-110036271D01*
X135852778Y-110072009D01*
X135936443Y-110228534D01*
X135987963Y-110398373D01*
X136001000Y-110530742D01*
X136001000Y-110869257D01*
X135987963Y-111001626D01*
X135936443Y-111171466D01*
X135852778Y-111327991D01*
X135823448Y-111363729D01*
X135740186Y-111465186D01*
X135652178Y-111537411D01*
X135602991Y-111577778D01*
X135446466Y-111661443D01*
X135276627Y-111712963D01*
X135100000Y-111730359D01*
X134923374Y-111712963D01*
X134753535Y-111661443D01*
X134597010Y-111577778D01*
X134459815Y-111465185D01*
X134347222Y-111327991D01*
X134263557Y-111171466D01*
X134212037Y-111001627D01*
X134199000Y-110869258D01*
X134199000Y-110530743D01*
X134201463Y-110505740D01*
X134212037Y-110398376D01*
X134212037Y-110398374D01*
X134263557Y-110228535D01*
X134347222Y-110072010D01*
X134367738Y-110047011D01*
X134459814Y-109934814D01*
X134561271Y-109851552D01*
X134597009Y-109822222D01*
X134753534Y-109738557D01*
X134923373Y-109687037D01*
X135100000Y-109669641D01*
X135276626Y-109687037D01*
G37*
G36*
X137776626Y-109687037D02*
G01*
X137946465Y-109738557D01*
X137946467Y-109738558D01*
X138102989Y-109822221D01*
X138240186Y-109934814D01*
X138323448Y-110036271D01*
X138352778Y-110072009D01*
X138436443Y-110228534D01*
X138487963Y-110398373D01*
X138501000Y-110530742D01*
X138501000Y-110869257D01*
X138487963Y-111001626D01*
X138436443Y-111171466D01*
X138352778Y-111327991D01*
X138323448Y-111363729D01*
X138240186Y-111465186D01*
X138152178Y-111537411D01*
X138102991Y-111577778D01*
X137946466Y-111661443D01*
X137776627Y-111712963D01*
X137600000Y-111730359D01*
X137423374Y-111712963D01*
X137253535Y-111661443D01*
X137097010Y-111577778D01*
X136959815Y-111465185D01*
X136847222Y-111327991D01*
X136763557Y-111171466D01*
X136712037Y-111001627D01*
X136699000Y-110869258D01*
X136699000Y-110530743D01*
X136701463Y-110505740D01*
X136712037Y-110398376D01*
X136712037Y-110398374D01*
X136763557Y-110228535D01*
X136847222Y-110072010D01*
X136867738Y-110047011D01*
X136959814Y-109934814D01*
X137061271Y-109851552D01*
X137097009Y-109822222D01*
X137253534Y-109738557D01*
X137423373Y-109687037D01*
X137600000Y-109669641D01*
X137776626Y-109687037D01*
G37*
G36*
X140276626Y-109687037D02*
G01*
X140446465Y-109738557D01*
X140446467Y-109738558D01*
X140602989Y-109822221D01*
X140740186Y-109934814D01*
X140823448Y-110036271D01*
X140852778Y-110072009D01*
X140936443Y-110228534D01*
X140987963Y-110398373D01*
X141001000Y-110530742D01*
X141001000Y-110869257D01*
X140987963Y-111001626D01*
X140936443Y-111171466D01*
X140852778Y-111327991D01*
X140823448Y-111363729D01*
X140740186Y-111465186D01*
X140652178Y-111537411D01*
X140602991Y-111577778D01*
X140446466Y-111661443D01*
X140276627Y-111712963D01*
X140100000Y-111730359D01*
X139923374Y-111712963D01*
X139753535Y-111661443D01*
X139597010Y-111577778D01*
X139459815Y-111465185D01*
X139347222Y-111327991D01*
X139263557Y-111171466D01*
X139212037Y-111001627D01*
X139199000Y-110869258D01*
X139199000Y-110530743D01*
X139201463Y-110505740D01*
X139212037Y-110398376D01*
X139212037Y-110398374D01*
X139263557Y-110228535D01*
X139347222Y-110072010D01*
X139367738Y-110047011D01*
X139459814Y-109934814D01*
X139561271Y-109851552D01*
X139597009Y-109822222D01*
X139753534Y-109738557D01*
X139923373Y-109687037D01*
X140100000Y-109669641D01*
X140276626Y-109687037D01*
G37*
G36*
X142776626Y-109687037D02*
G01*
X142946465Y-109738557D01*
X142946467Y-109738558D01*
X143102989Y-109822221D01*
X143240186Y-109934814D01*
X143323448Y-110036271D01*
X143352778Y-110072009D01*
X143436443Y-110228534D01*
X143487963Y-110398373D01*
X143501000Y-110530742D01*
X143501000Y-110869257D01*
X143487963Y-111001626D01*
X143436443Y-111171466D01*
X143352778Y-111327991D01*
X143323448Y-111363729D01*
X143240186Y-111465186D01*
X143152178Y-111537411D01*
X143102991Y-111577778D01*
X142946466Y-111661443D01*
X142776627Y-111712963D01*
X142600000Y-111730359D01*
X142423374Y-111712963D01*
X142253535Y-111661443D01*
X142097010Y-111577778D01*
X141959815Y-111465185D01*
X141847222Y-111327991D01*
X141763557Y-111171466D01*
X141712037Y-111001627D01*
X141699000Y-110869258D01*
X141699000Y-110530743D01*
X141701463Y-110505740D01*
X141712037Y-110398376D01*
X141712037Y-110398374D01*
X141763557Y-110228535D01*
X141847222Y-110072010D01*
X141867738Y-110047011D01*
X141959814Y-109934814D01*
X142061271Y-109851552D01*
X142097009Y-109822222D01*
X142253534Y-109738557D01*
X142423373Y-109687037D01*
X142600000Y-109669641D01*
X142776626Y-109687037D01*
G37*
G36*
X130858600Y-109677989D02*
G01*
X130891652Y-109688015D01*
X130922103Y-109704292D01*
X130948799Y-109726201D01*
X130970708Y-109752897D01*
X130986985Y-109783348D01*
X130997011Y-109816400D01*
X131001000Y-109856903D01*
X131001000Y-111543097D01*
X130997011Y-111583600D01*
X130986985Y-111616652D01*
X130970708Y-111647103D01*
X130948799Y-111673799D01*
X130922103Y-111695708D01*
X130891652Y-111711985D01*
X130858600Y-111722011D01*
X130818097Y-111726000D01*
X129381903Y-111726000D01*
X129341400Y-111722011D01*
X129308348Y-111711985D01*
X129277897Y-111695708D01*
X129251201Y-111673799D01*
X129229292Y-111647103D01*
X129213015Y-111616652D01*
X129202989Y-111583600D01*
X129199000Y-111543097D01*
X129199000Y-109856903D01*
X129202989Y-109816400D01*
X129213015Y-109783348D01*
X129229292Y-109752897D01*
X129251201Y-109726201D01*
X129277897Y-109704292D01*
X129308348Y-109688015D01*
X129341400Y-109677989D01*
X129381903Y-109674000D01*
X130818097Y-109674000D01*
X130858600Y-109677989D01*
G37*
G36*
X105401626Y-109662037D02*
G01*
X105571465Y-109713557D01*
X105571467Y-109713558D01*
X105727989Y-109797221D01*
X105865186Y-109909814D01*
X105948448Y-110011271D01*
X105977778Y-110047009D01*
X106061443Y-110203534D01*
X106112963Y-110373373D01*
X106119482Y-110439558D01*
X106126000Y-110505740D01*
X106126000Y-110844259D01*
X106119481Y-110910442D01*
X106112963Y-110976626D01*
X106061443Y-111146466D01*
X105977778Y-111302991D01*
X105957261Y-111327991D01*
X105865186Y-111440186D01*
X105776827Y-111512699D01*
X105727991Y-111552778D01*
X105571466Y-111636443D01*
X105401627Y-111687963D01*
X105225000Y-111705359D01*
X105048374Y-111687963D01*
X104878535Y-111636443D01*
X104722010Y-111552778D01*
X104584815Y-111440185D01*
X104472222Y-111302991D01*
X104388557Y-111146466D01*
X104337037Y-110976627D01*
X104324000Y-110844258D01*
X104324000Y-110505743D01*
X104337037Y-110373374D01*
X104388557Y-110203535D01*
X104388559Y-110203532D01*
X104472221Y-110047011D01*
X104584814Y-109909814D01*
X104698641Y-109816400D01*
X104722009Y-109797222D01*
X104878534Y-109713557D01*
X105048373Y-109662037D01*
X105225000Y-109644641D01*
X105401626Y-109662037D01*
G37*
G36*
X110401626Y-109662037D02*
G01*
X110571465Y-109713557D01*
X110571467Y-109713558D01*
X110727989Y-109797221D01*
X110865186Y-109909814D01*
X110948448Y-110011271D01*
X110977778Y-110047009D01*
X111061443Y-110203534D01*
X111112963Y-110373373D01*
X111119482Y-110439558D01*
X111126000Y-110505740D01*
X111126000Y-110844259D01*
X111119481Y-110910442D01*
X111112963Y-110976626D01*
X111061443Y-111146466D01*
X110977778Y-111302991D01*
X110957261Y-111327991D01*
X110865186Y-111440186D01*
X110776827Y-111512699D01*
X110727991Y-111552778D01*
X110571466Y-111636443D01*
X110401627Y-111687963D01*
X110225000Y-111705359D01*
X110048374Y-111687963D01*
X109878535Y-111636443D01*
X109722010Y-111552778D01*
X109584815Y-111440185D01*
X109472222Y-111302991D01*
X109388557Y-111146466D01*
X109337037Y-110976627D01*
X109324000Y-110844258D01*
X109324000Y-110505743D01*
X109337037Y-110373374D01*
X109388557Y-110203535D01*
X109388559Y-110203532D01*
X109472221Y-110047011D01*
X109584814Y-109909814D01*
X109698641Y-109816400D01*
X109722009Y-109797222D01*
X109878534Y-109713557D01*
X110048373Y-109662037D01*
X110225000Y-109644641D01*
X110401626Y-109662037D01*
G37*
G36*
X107901626Y-109662037D02*
G01*
X108071465Y-109713557D01*
X108071467Y-109713558D01*
X108227989Y-109797221D01*
X108365186Y-109909814D01*
X108448448Y-110011271D01*
X108477778Y-110047009D01*
X108561443Y-110203534D01*
X108612963Y-110373373D01*
X108619482Y-110439558D01*
X108626000Y-110505740D01*
X108626000Y-110844259D01*
X108619481Y-110910442D01*
X108612963Y-110976626D01*
X108561443Y-111146466D01*
X108477778Y-111302991D01*
X108457261Y-111327991D01*
X108365186Y-111440186D01*
X108276827Y-111512699D01*
X108227991Y-111552778D01*
X108071466Y-111636443D01*
X107901627Y-111687963D01*
X107725000Y-111705359D01*
X107548374Y-111687963D01*
X107378535Y-111636443D01*
X107222010Y-111552778D01*
X107084815Y-111440185D01*
X106972222Y-111302991D01*
X106888557Y-111146466D01*
X106837037Y-110976627D01*
X106824000Y-110844258D01*
X106824000Y-110505743D01*
X106837037Y-110373374D01*
X106888557Y-110203535D01*
X106888559Y-110203532D01*
X106972221Y-110047011D01*
X107084814Y-109909814D01*
X107198641Y-109816400D01*
X107222009Y-109797222D01*
X107378534Y-109713557D01*
X107548373Y-109662037D01*
X107725000Y-109644641D01*
X107901626Y-109662037D01*
G37*
G36*
X97901626Y-109662037D02*
G01*
X98071465Y-109713557D01*
X98071467Y-109713558D01*
X98227989Y-109797221D01*
X98365186Y-109909814D01*
X98448448Y-110011271D01*
X98477778Y-110047009D01*
X98561443Y-110203534D01*
X98612963Y-110373373D01*
X98619482Y-110439558D01*
X98626000Y-110505740D01*
X98626000Y-110844259D01*
X98619481Y-110910442D01*
X98612963Y-110976626D01*
X98561443Y-111146466D01*
X98477778Y-111302991D01*
X98457261Y-111327991D01*
X98365186Y-111440186D01*
X98276827Y-111512699D01*
X98227991Y-111552778D01*
X98071466Y-111636443D01*
X97901627Y-111687963D01*
X97725000Y-111705359D01*
X97548374Y-111687963D01*
X97378535Y-111636443D01*
X97222010Y-111552778D01*
X97084815Y-111440185D01*
X96972222Y-111302991D01*
X96888557Y-111146466D01*
X96837037Y-110976627D01*
X96824000Y-110844258D01*
X96824000Y-110505743D01*
X96837037Y-110373374D01*
X96888557Y-110203535D01*
X96888559Y-110203532D01*
X96972221Y-110047011D01*
X97084814Y-109909814D01*
X97198641Y-109816400D01*
X97222009Y-109797222D01*
X97378534Y-109713557D01*
X97548373Y-109662037D01*
X97725000Y-109644641D01*
X97901626Y-109662037D01*
G37*
G36*
X102901626Y-109662037D02*
G01*
X103071465Y-109713557D01*
X103071467Y-109713558D01*
X103227989Y-109797221D01*
X103365186Y-109909814D01*
X103448448Y-110011271D01*
X103477778Y-110047009D01*
X103561443Y-110203534D01*
X103612963Y-110373373D01*
X103619482Y-110439558D01*
X103626000Y-110505740D01*
X103626000Y-110844259D01*
X103619481Y-110910442D01*
X103612963Y-110976626D01*
X103561443Y-111146466D01*
X103477778Y-111302991D01*
X103457261Y-111327991D01*
X103365186Y-111440186D01*
X103276827Y-111512699D01*
X103227991Y-111552778D01*
X103071466Y-111636443D01*
X102901627Y-111687963D01*
X102725000Y-111705359D01*
X102548374Y-111687963D01*
X102378535Y-111636443D01*
X102222010Y-111552778D01*
X102084815Y-111440185D01*
X101972222Y-111302991D01*
X101888557Y-111146466D01*
X101837037Y-110976627D01*
X101824000Y-110844258D01*
X101824000Y-110505743D01*
X101837037Y-110373374D01*
X101888557Y-110203535D01*
X101888559Y-110203532D01*
X101972221Y-110047011D01*
X102084814Y-109909814D01*
X102198641Y-109816400D01*
X102222009Y-109797222D01*
X102378534Y-109713557D01*
X102548373Y-109662037D01*
X102725000Y-109644641D01*
X102901626Y-109662037D01*
G37*
G36*
X100401626Y-109662037D02*
G01*
X100571465Y-109713557D01*
X100571467Y-109713558D01*
X100727989Y-109797221D01*
X100865186Y-109909814D01*
X100948448Y-110011271D01*
X100977778Y-110047009D01*
X101061443Y-110203534D01*
X101112963Y-110373373D01*
X101119482Y-110439558D01*
X101126000Y-110505740D01*
X101126000Y-110844259D01*
X101119481Y-110910442D01*
X101112963Y-110976626D01*
X101061443Y-111146466D01*
X100977778Y-111302991D01*
X100957261Y-111327991D01*
X100865186Y-111440186D01*
X100776827Y-111512699D01*
X100727991Y-111552778D01*
X100571466Y-111636443D01*
X100401627Y-111687963D01*
X100225000Y-111705359D01*
X100048374Y-111687963D01*
X99878535Y-111636443D01*
X99722010Y-111552778D01*
X99584815Y-111440185D01*
X99472222Y-111302991D01*
X99388557Y-111146466D01*
X99337037Y-110976627D01*
X99324000Y-110844258D01*
X99324000Y-110505743D01*
X99337037Y-110373374D01*
X99388557Y-110203535D01*
X99388559Y-110203532D01*
X99472221Y-110047011D01*
X99584814Y-109909814D01*
X99698641Y-109816400D01*
X99722009Y-109797222D01*
X99878534Y-109713557D01*
X100048373Y-109662037D01*
X100225000Y-109644641D01*
X100401626Y-109662037D01*
G37*
G36*
X95983600Y-109652989D02*
G01*
X96016652Y-109663015D01*
X96047103Y-109679292D01*
X96073799Y-109701201D01*
X96095708Y-109727897D01*
X96111985Y-109758348D01*
X96122011Y-109791400D01*
X96126000Y-109831903D01*
X96126000Y-111518097D01*
X96122011Y-111558600D01*
X96111985Y-111591652D01*
X96095708Y-111622103D01*
X96073799Y-111648799D01*
X96047103Y-111670708D01*
X96016652Y-111686985D01*
X95983600Y-111697011D01*
X95943097Y-111701000D01*
X94506903Y-111701000D01*
X94466400Y-111697011D01*
X94433348Y-111686985D01*
X94402897Y-111670708D01*
X94376201Y-111648799D01*
X94354292Y-111622103D01*
X94338015Y-111591652D01*
X94327989Y-111558600D01*
X94324000Y-111518097D01*
X94324000Y-109831903D01*
X94327989Y-109791400D01*
X94338015Y-109758348D01*
X94354292Y-109727897D01*
X94376201Y-109701201D01*
X94402897Y-109679292D01*
X94433348Y-109663015D01*
X94466400Y-109652989D01*
X94506903Y-109649000D01*
X95943097Y-109649000D01*
X95983600Y-109652989D01*
G37*
G36*
X128205110Y-100021114D02*
G01*
X128428227Y-100113532D01*
X128428229Y-100113533D01*
X128478769Y-100147303D01*
X128629029Y-100247703D01*
X128799797Y-100418471D01*
X128933968Y-100619273D01*
X129026386Y-100842390D01*
X129073500Y-101079248D01*
X129073500Y-101320752D01*
X129026386Y-101557610D01*
X128933968Y-101780727D01*
X128799797Y-101981529D01*
X128629029Y-102152297D01*
X128478769Y-102252697D01*
X128428229Y-102286467D01*
X128428228Y-102286468D01*
X128428227Y-102286468D01*
X128205110Y-102378886D01*
X127968252Y-102426000D01*
X127726748Y-102426000D01*
X127489890Y-102378886D01*
X127266773Y-102286468D01*
X127266772Y-102286468D01*
X127266771Y-102286467D01*
X127216231Y-102252697D01*
X127065971Y-102152297D01*
X126895203Y-101981529D01*
X126761032Y-101780727D01*
X126668614Y-101557610D01*
X126621500Y-101320752D01*
X126621500Y-101079248D01*
X126668614Y-100842390D01*
X126761032Y-100619273D01*
X126895203Y-100418471D01*
X127065971Y-100247703D01*
X127216231Y-100147303D01*
X127266771Y-100113533D01*
X127266773Y-100113532D01*
X127489890Y-100021114D01*
X127726748Y-99974000D01*
X127968252Y-99974000D01*
X128205110Y-100021114D01*
G37*
G36*
X112885110Y-100021114D02*
G01*
X113108227Y-100113532D01*
X113108229Y-100113533D01*
X113158769Y-100147303D01*
X113309029Y-100247703D01*
X113479797Y-100418471D01*
X113613968Y-100619273D01*
X113706386Y-100842390D01*
X113753500Y-101079248D01*
X113753500Y-101320752D01*
X113706386Y-101557610D01*
X113613968Y-101780727D01*
X113479797Y-101981529D01*
X113309029Y-102152297D01*
X113158769Y-102252697D01*
X113108229Y-102286467D01*
X113108228Y-102286468D01*
X113108227Y-102286468D01*
X112885110Y-102378886D01*
X112648252Y-102426000D01*
X112406748Y-102426000D01*
X112169890Y-102378886D01*
X111946773Y-102286468D01*
X111946772Y-102286468D01*
X111946771Y-102286467D01*
X111896231Y-102252697D01*
X111745971Y-102152297D01*
X111575203Y-101981529D01*
X111441032Y-101780727D01*
X111348614Y-101557610D01*
X111301500Y-101320752D01*
X111301500Y-101079248D01*
X111348614Y-100842390D01*
X111441032Y-100619273D01*
X111575203Y-100418471D01*
X111745971Y-100247703D01*
X111896231Y-100147303D01*
X111946771Y-100113533D01*
X111946773Y-100113532D01*
X112169890Y-100021114D01*
X112406748Y-99974000D01*
X112648252Y-99974000D01*
X112885110Y-100021114D01*
G37*
G36*
X112885110Y-94941114D02*
G01*
X113108227Y-95033532D01*
X113108229Y-95033533D01*
X113158769Y-95067303D01*
X113309029Y-95167703D01*
X113479797Y-95338471D01*
X113613968Y-95539273D01*
X113706386Y-95762390D01*
X113753500Y-95999248D01*
X113753500Y-96240752D01*
X113706386Y-96477610D01*
X113613968Y-96700727D01*
X113479797Y-96901529D01*
X113309029Y-97072297D01*
X113158769Y-97172697D01*
X113108229Y-97206467D01*
X113108228Y-97206468D01*
X113108227Y-97206468D01*
X112885110Y-97298886D01*
X112648252Y-97346000D01*
X112406748Y-97346000D01*
X112169890Y-97298886D01*
X111946773Y-97206468D01*
X111946772Y-97206468D01*
X111946771Y-97206467D01*
X111896231Y-97172697D01*
X111745971Y-97072297D01*
X111575203Y-96901529D01*
X111441032Y-96700727D01*
X111348614Y-96477610D01*
X111301500Y-96240752D01*
X111301500Y-95999248D01*
X111348614Y-95762390D01*
X111441032Y-95539273D01*
X111575203Y-95338471D01*
X111745971Y-95167703D01*
X111896231Y-95067303D01*
X111946771Y-95033533D01*
X111946773Y-95033532D01*
X112169890Y-94941114D01*
X112406748Y-94894000D01*
X112648252Y-94894000D01*
X112885110Y-94941114D01*
G37*
G36*
X128205110Y-94941114D02*
G01*
X128428227Y-95033532D01*
X128428229Y-95033533D01*
X128478769Y-95067303D01*
X128629029Y-95167703D01*
X128799797Y-95338471D01*
X128933968Y-95539273D01*
X129026386Y-95762390D01*
X129073500Y-95999248D01*
X129073500Y-96240752D01*
X129026386Y-96477610D01*
X128933968Y-96700727D01*
X128799797Y-96901529D01*
X128629029Y-97072297D01*
X128478769Y-97172697D01*
X128428229Y-97206467D01*
X128428228Y-97206468D01*
X128428227Y-97206468D01*
X128205110Y-97298886D01*
X127968252Y-97346000D01*
X127726748Y-97346000D01*
X127489890Y-97298886D01*
X127266773Y-97206468D01*
X127266772Y-97206468D01*
X127266771Y-97206467D01*
X127216231Y-97172697D01*
X127065971Y-97072297D01*
X126895203Y-96901529D01*
X126761032Y-96700727D01*
X126668614Y-96477610D01*
X126621500Y-96240752D01*
X126621500Y-95999248D01*
X126668614Y-95762390D01*
X126761032Y-95539273D01*
X126895203Y-95338471D01*
X127065971Y-95167703D01*
X127216231Y-95067303D01*
X127266771Y-95033533D01*
X127266773Y-95033532D01*
X127489890Y-94941114D01*
X127726748Y-94894000D01*
X127968252Y-94894000D01*
X128205110Y-94941114D01*
G37*
G36*
X94875256Y-81591298D02*
G01*
X94981579Y-81612447D01*
X95194037Y-81700450D01*
X95257898Y-81726902D01*
X95282042Y-81736903D01*
X95552451Y-81917585D01*
X95782415Y-82147549D01*
X95963097Y-82417958D01*
X96083411Y-82708421D01*
X96087553Y-82718422D01*
X96149011Y-83027389D01*
X96151000Y-83037391D01*
X96151000Y-83362609D01*
X96087553Y-83681579D01*
X95963097Y-83982042D01*
X95782415Y-84252451D01*
X95552451Y-84482415D01*
X95282042Y-84663097D01*
X94981579Y-84787553D01*
X94875256Y-84808702D01*
X94662611Y-84851000D01*
X94337389Y-84851000D01*
X94124744Y-84808702D01*
X94018421Y-84787553D01*
X93717958Y-84663097D01*
X93447549Y-84482415D01*
X93217585Y-84252451D01*
X93036903Y-83982042D01*
X92912447Y-83681579D01*
X92849000Y-83362609D01*
X92849000Y-83037391D01*
X92850990Y-83027389D01*
X92912447Y-82718422D01*
X92916590Y-82708421D01*
X93036903Y-82417958D01*
X93217585Y-82147549D01*
X93447549Y-81917585D01*
X93717958Y-81736903D01*
X93742103Y-81726902D01*
X93805963Y-81700450D01*
X94018421Y-81612447D01*
X94124744Y-81591298D01*
X94337389Y-81549000D01*
X94662611Y-81549000D01*
X94875256Y-81591298D01*
G37*
G36*
X145875256Y-81581298D02*
G01*
X145981579Y-81602447D01*
X146282042Y-81726903D01*
X146552451Y-81907585D01*
X146782415Y-82137549D01*
X146789098Y-82147551D01*
X146963098Y-82407960D01*
X147087553Y-82708422D01*
X147151000Y-83027389D01*
X147151000Y-83352611D01*
X147136402Y-83426000D01*
X147087553Y-83671579D01*
X146963097Y-83972042D01*
X146782415Y-84242451D01*
X146552451Y-84472415D01*
X146282042Y-84653097D01*
X146282041Y-84653098D01*
X146282040Y-84653098D01*
X146194037Y-84689550D01*
X145981579Y-84777553D01*
X145875256Y-84798702D01*
X145662611Y-84841000D01*
X145337389Y-84841000D01*
X145124744Y-84798702D01*
X145018421Y-84777553D01*
X144805963Y-84689550D01*
X144717960Y-84653098D01*
X144717959Y-84653098D01*
X144717958Y-84653097D01*
X144447549Y-84472415D01*
X144217585Y-84242451D01*
X144036903Y-83972042D01*
X143912447Y-83671579D01*
X143863598Y-83426000D01*
X143849000Y-83352611D01*
X143849000Y-83027389D01*
X143912447Y-82708422D01*
X144036902Y-82407960D01*
X144210902Y-82147551D01*
X144217585Y-82137549D01*
X144447549Y-81907585D01*
X144717958Y-81726903D01*
X145018421Y-81602447D01*
X145124744Y-81581298D01*
X145337389Y-81539000D01*
X145662611Y-81539000D01*
X145875256Y-81581298D01*
G37*
G36*
X119716000Y-83426000D02*
G01*
X118264000Y-83426000D01*
X118264000Y-80974000D01*
X119716000Y-80974000D01*
X119716000Y-83426000D01*
G37*
G36*
X107716000Y-83426000D02*
G01*
X106264000Y-83426000D01*
X106264000Y-80974000D01*
X107716000Y-80974000D01*
X107716000Y-83426000D01*
G37*
G36*
X109716000Y-83426000D02*
G01*
X108264000Y-83426000D01*
X108264000Y-80974000D01*
X109716000Y-80974000D01*
X109716000Y-83426000D01*
G37*
G36*
X113716000Y-83426000D02*
G01*
X112264000Y-83426000D01*
X112264000Y-80974000D01*
X113716000Y-80974000D01*
X113716000Y-83426000D01*
G37*
G36*
X115716000Y-83426000D02*
G01*
X114264000Y-83426000D01*
X114264000Y-80974000D01*
X115716000Y-80974000D01*
X115716000Y-83426000D01*
G37*
G36*
X117716000Y-83426000D02*
G01*
X116264000Y-83426000D01*
X116264000Y-80974000D01*
X117716000Y-80974000D01*
X117716000Y-83426000D01*
G37*
G36*
X111716000Y-83426000D02*
G01*
X110264000Y-83426000D01*
X110264000Y-80974000D01*
X111716000Y-80974000D01*
X111716000Y-83426000D01*
G37*
G36*
X133716000Y-83426000D02*
G01*
X132264000Y-83426000D01*
X132264000Y-80974000D01*
X133716000Y-80974000D01*
X133716000Y-83426000D01*
G37*
G36*
X121716000Y-83426000D02*
G01*
X120264000Y-83426000D01*
X120264000Y-80974000D01*
X121716000Y-80974000D01*
X121716000Y-83426000D01*
G37*
G36*
X123716000Y-83426000D02*
G01*
X122264000Y-83426000D01*
X122264000Y-80974000D01*
X123716000Y-80974000D01*
X123716000Y-83426000D01*
G37*
G36*
X125716000Y-83426000D02*
G01*
X124264000Y-83426000D01*
X124264000Y-80974000D01*
X125716000Y-80974000D01*
X125716000Y-83426000D01*
G37*
G36*
X127716000Y-83426000D02*
G01*
X126264000Y-83426000D01*
X126264000Y-80974000D01*
X127716000Y-80974000D01*
X127716000Y-83426000D01*
G37*
G36*
X129716000Y-83426000D02*
G01*
X128264000Y-83426000D01*
X128264000Y-80974000D01*
X129716000Y-80974000D01*
X129716000Y-83426000D01*
G37*
G36*
X131716000Y-83426000D02*
G01*
X130264000Y-83426000D01*
X130264000Y-80974000D01*
X131716000Y-80974000D01*
X131716000Y-83426000D01*
G37*
M02*
