G04 #@! TF.GenerationSoftware,KiCad,Pcbnew,(5.1.5)-3*
G04 #@! TF.CreationDate,2020-02-13T20:49:58+01:00*
G04 #@! TF.ProjectId,bms,626d732e-6b69-4636-9164-5f7063625858,01*
G04 #@! TF.SameCoordinates,Original*
G04 #@! TF.FileFunction,Copper,L2,Bot*
G04 #@! TF.FilePolarity,Positive*
%FSLAX46Y46*%
G04 Gerber Fmt 4.6, Leading zero omitted, Abs format (unit mm)*
G04 Created by KiCad (PCBNEW (5.1.5)-3) date 2020-02-13 20:49:58*
%MOMM*%
%LPD*%
G04 APERTURE LIST*
%ADD10C,2.350000*%
%ADD11R,1.350000X2.350000*%
%ADD12O,1.700000X1.950000*%
%ADD13C,0.100000*%
G04 APERTURE END LIST*
D10*
X127847500Y-96120000D03*
X127847500Y-101200000D03*
X112527500Y-96120000D03*
X112527500Y-101200000D03*
D11*
X106990000Y-82200000D03*
X108990000Y-82200000D03*
X110990000Y-82200000D03*
X112990000Y-82200000D03*
X114990000Y-82200000D03*
X116990000Y-82200000D03*
X118990000Y-82200000D03*
X120990000Y-82200000D03*
X122990000Y-82200000D03*
X124990000Y-82200000D03*
X126990000Y-82200000D03*
X128990000Y-82200000D03*
X130990000Y-82200000D03*
X132990000Y-82200000D03*
D12*
X145100000Y-110700000D03*
X142600000Y-110700000D03*
X140100000Y-110700000D03*
X137600000Y-110700000D03*
X135100000Y-110700000D03*
X132600000Y-110700000D03*
G04 #@! TA.AperFunction,ComponentPad*
D13*
G36*
X130724504Y-109726204D02*
G01*
X130748773Y-109729804D01*
X130772571Y-109735765D01*
X130795671Y-109744030D01*
X130817849Y-109754520D01*
X130838893Y-109767133D01*
X130858598Y-109781747D01*
X130876777Y-109798223D01*
X130893253Y-109816402D01*
X130907867Y-109836107D01*
X130920480Y-109857151D01*
X130930970Y-109879329D01*
X130939235Y-109902429D01*
X130945196Y-109926227D01*
X130948796Y-109950496D01*
X130950000Y-109975000D01*
X130950000Y-111425000D01*
X130948796Y-111449504D01*
X130945196Y-111473773D01*
X130939235Y-111497571D01*
X130930970Y-111520671D01*
X130920480Y-111542849D01*
X130907867Y-111563893D01*
X130893253Y-111583598D01*
X130876777Y-111601777D01*
X130858598Y-111618253D01*
X130838893Y-111632867D01*
X130817849Y-111645480D01*
X130795671Y-111655970D01*
X130772571Y-111664235D01*
X130748773Y-111670196D01*
X130724504Y-111673796D01*
X130700000Y-111675000D01*
X129500000Y-111675000D01*
X129475496Y-111673796D01*
X129451227Y-111670196D01*
X129427429Y-111664235D01*
X129404329Y-111655970D01*
X129382151Y-111645480D01*
X129361107Y-111632867D01*
X129341402Y-111618253D01*
X129323223Y-111601777D01*
X129306747Y-111583598D01*
X129292133Y-111563893D01*
X129279520Y-111542849D01*
X129269030Y-111520671D01*
X129260765Y-111497571D01*
X129254804Y-111473773D01*
X129251204Y-111449504D01*
X129250000Y-111425000D01*
X129250000Y-109975000D01*
X129251204Y-109950496D01*
X129254804Y-109926227D01*
X129260765Y-109902429D01*
X129269030Y-109879329D01*
X129279520Y-109857151D01*
X129292133Y-109836107D01*
X129306747Y-109816402D01*
X129323223Y-109798223D01*
X129341402Y-109781747D01*
X129361107Y-109767133D01*
X129382151Y-109754520D01*
X129404329Y-109744030D01*
X129427429Y-109735765D01*
X129451227Y-109729804D01*
X129475496Y-109726204D01*
X129500000Y-109725000D01*
X130700000Y-109725000D01*
X130724504Y-109726204D01*
G37*
G04 #@! TD.AperFunction*
D12*
X110225000Y-110675000D03*
X107725000Y-110675000D03*
X105225000Y-110675000D03*
X102725000Y-110675000D03*
X100225000Y-110675000D03*
X97725000Y-110675000D03*
G04 #@! TA.AperFunction,ComponentPad*
D13*
G36*
X95849504Y-109701204D02*
G01*
X95873773Y-109704804D01*
X95897571Y-109710765D01*
X95920671Y-109719030D01*
X95942849Y-109729520D01*
X95963893Y-109742133D01*
X95983598Y-109756747D01*
X96001777Y-109773223D01*
X96018253Y-109791402D01*
X96032867Y-109811107D01*
X96045480Y-109832151D01*
X96055970Y-109854329D01*
X96064235Y-109877429D01*
X96070196Y-109901227D01*
X96073796Y-109925496D01*
X96075000Y-109950000D01*
X96075000Y-111400000D01*
X96073796Y-111424504D01*
X96070196Y-111448773D01*
X96064235Y-111472571D01*
X96055970Y-111495671D01*
X96045480Y-111517849D01*
X96032867Y-111538893D01*
X96018253Y-111558598D01*
X96001777Y-111576777D01*
X95983598Y-111593253D01*
X95963893Y-111607867D01*
X95942849Y-111620480D01*
X95920671Y-111630970D01*
X95897571Y-111639235D01*
X95873773Y-111645196D01*
X95849504Y-111648796D01*
X95825000Y-111650000D01*
X94625000Y-111650000D01*
X94600496Y-111648796D01*
X94576227Y-111645196D01*
X94552429Y-111639235D01*
X94529329Y-111630970D01*
X94507151Y-111620480D01*
X94486107Y-111607867D01*
X94466402Y-111593253D01*
X94448223Y-111576777D01*
X94431747Y-111558598D01*
X94417133Y-111538893D01*
X94404520Y-111517849D01*
X94394030Y-111495671D01*
X94385765Y-111472571D01*
X94379804Y-111448773D01*
X94376204Y-111424504D01*
X94375000Y-111400000D01*
X94375000Y-109950000D01*
X94376204Y-109925496D01*
X94379804Y-109901227D01*
X94385765Y-109877429D01*
X94394030Y-109854329D01*
X94404520Y-109832151D01*
X94417133Y-109811107D01*
X94431747Y-109791402D01*
X94448223Y-109773223D01*
X94466402Y-109756747D01*
X94486107Y-109742133D01*
X94507151Y-109729520D01*
X94529329Y-109719030D01*
X94552429Y-109710765D01*
X94576227Y-109704804D01*
X94600496Y-109701204D01*
X94625000Y-109700000D01*
X95825000Y-109700000D01*
X95849504Y-109701204D01*
G37*
G04 #@! TD.AperFunction*
M02*
